<svg xmlns="http://www.w3.org/2000/svg" viewBox="0 0 53 53"><path fill="#455a64" d="M40.63 4.566v43.868a2.066 2.066 0 0 1-2.066 2.066H14.436a2.066 2.066 0 0 1-2.066-2.066V4.566c0-1.141.925-2.066 2.066-2.066h24.128c1.141 0 2.066.925 2.066 2.066z"/><path fill="#d9defb" d="m38.63 48.43-.07.07H15.1a.66.66 0 0 1-.661-.66l-.068-42.61a.66.66 0 0 1 .659-.662l7.03-.017c.24 0 .462.13.58.34l.411.74a.66.66 0 0 0 .577.339h5.742a.66.66 0 0 0 .578-.341l.424-.769a.66.66 0 0 1 .577-.341l6.95-.017a.66.66 0 0 1 .662.659l.069 43.269z"/><path fill="#384c54" d="M28.582 4.982c0 .16-.13.29-.28.29h-3.72c-.15 0-.28-.13-.28-.29 0-.15.13-.28.28-.28h3.72c.15 0 .28.13.28.28z"/><path fill="#f45558" d="M27.64 30.928H16.684a.662.662 0 0 1-.662-.662V18.49c0-.366.297-.662.662-.662h5.913l5.045 13.1z"/><path fill="#2196f3" d="M36.979 20.748v11.766a.662.662 0 0 1-.662.662h-5.905l-5.045-13.09h10.95c.365 0 .662.296.662.662z"/><path fill="#2196f3" d="m26.165 21.255.832 2.007-1.916-.034z"/><path fill="#f45558" d="m26.835 29.754-.832-2.007 1.916.034z"/><path fill="#fff" d="M31.407 26.044c.027-.024.031-.03.037-.033.54-.21.53-.205.76.304.142.31.321.603.487.902.032.057.084.104.142.173.49-.56.84-1.173 1.13-1.87-.109-.005-.188-.012-.267-.012-.992 0-1.985-.003-2.977.007-.204.002-.287-.043-.277-.265.022-.457-.043-.385.395-.388a68.215 68.215 0 0 1 1.594.003c.165.002.225-.05.211-.217-.013-.166-.003-.334-.003-.53.182 0 .348-.008.512.006.037.003.093.076.099.122.014.117.017.239.004.356-.022.196.04.269.25.264.573-.014 1.146 0 1.72-.008.161-.002.223.042.217.212-.016.509.065.444-.43.434-.243-.004-.363.063-.458.3a6.79 6.79 0 0 1-1.2 1.98c-.022.026-.04.055-.07.094.236.266.528.441.84.581.145.066.194.132.12.282-.061.124-.104.258-.162.405-.394-.128-.726-.34-1.038-.586-.314-.247-.198-.248-.536-.023-.468.311-.975.507-1.573.532l-.029-.636c.532-.066 1.005-.232 1.425-.583-.403-.559-.738-1.142-.923-1.806zm-8.512.99c-.265 0-.49.015-.71-.008-.069-.007-.155-.102-.187-.176a42.693 42.693 0 0 1-.585-1.433c-.057-.148-.134-.208-.296-.204-.486.009-.973.006-1.46 0-.139-.003-.213.042-.266.178-.19.495-.401.983-.59 1.48-.05.128-.114.17-.243.165-.208-.008-.416-.002-.663-.002.183-.456.35-.877.52-1.298.506-1.248 1.016-2.494 1.511-3.746.083-.21.19-.282.412-.272.515.024.39-.061.573.386.626 1.538 1.248 3.078 1.87 4.617.036.088.066.18.114.313zm-1.863-2.566-.604-1.481-.065.011-.592 1.47h1.261z"/></svg>