<svg xmlns="http://www.w3.org/2000/svg" enable-background="new 0 0 1364 960" viewBox="0 0 1364 960"><path fill="#DED9FF" d="M889.41,696.032c-3.245-17-2.999-34.618,0.865-51.497c1.812-7.915,4.212-16.007,8.13-23.192l0.093,0.754
	c1.033,1.903,8.316,14.891,20.307,15.844c9.749,0.774,18.534-6.73,25.557-12.73c2.475-2.114,4.387-4.064,5.705-5.492
	c-4.126,0.25-10.165,0.142-16.989-1.892c-5.401-1.61-7.308-3.238-10.896-4.24c-4.635-1.294-11.523-1.383-21.441,3.886
	c4.558-6.794,10.954-11.849,17.62-16.493c6.621-4.612,13.601-8.896,19.341-14.629c4.385-4.38,7.55-9.457,9.297-15.244
	c1.984,3.422,8.985,14.174,19.855,15.038c9.748,0.774,18.533-6.73,25.556-12.73c2.475-2.114,4.387-4.063,5.705-5.492
	c-4.126,0.25-10.165,0.142-16.989-1.891c-5.401-1.61-7.308-3.238-10.896-4.24c-4.736-1.322-11.822-1.389-22.092,4.235
	c1.388-8.731,1.023-17.935,0.441-26.707c-0.287-4.321-0.832-8.606-1.401-12.887c2.678,4.243,9.325,13.031,19.11,13.808
	c9.749,0.774,18.533-6.731,25.556-12.73c2.475-2.114,4.387-4.064,5.705-5.492c-4.126,0.25-10.165,0.142-16.99-1.892
	c-5.4-1.609-7.308-3.238-10.895-4.24c-4.909-1.37-12.343-1.392-23.23,4.875c-0.279-2.207-0.538-4.418-0.741-6.636
	c-0.886-9.653,0.117-19.308,6.372-27.065l0.194,1.572c1.032,1.903,8.315,14.891,20.307,15.843
	c9.748,0.774,18.533-6.73,25.556-12.729c2.475-2.115,4.388-4.063,5.705-5.492c-4.126,0.249-10.165,0.142-16.989-1.892
	c-5.401-1.61-7.308-3.238-10.896-4.239c-4.517-1.262-11.174-1.379-20.693,3.495c5.073-4.807,11.398-8.206,17.797-11.14l2.164,1.369
	c2.211,0.424,17.455,3.132,26.126-5.882c7.049-7.328,6.807-19.338,6.613-28.939c-0.068-3.384-0.375-6.206-0.654-8.207
	c-2.52,3.482-6.588,8.266-12.721,12.412c-4.854,3.281-7.421,3.74-10.592,5.965c-4.348,3.05-9.278,9.033-11.409,21.978
	c-6.293,2.892-12.452,6.203-17.602,10.835c-5.25,4.722-8.746,10.655-10.184,17.415c-0.538-5.006-2.478-13.878-9.521-18.367
	c-7.638-4.869-18.083-2.546-26.434-0.689c-2.943,0.654-5.354,1.417-7.052,2.013c3.483,1.588,8.376,4.3,13.075,8.927
	c3.718,3.663,4.571,5.823,7.07,8.201c3.508,3.337,9.802,6.668,22.021,6.067l0.107-0.279c-0.371,7.349,0.957,14.703,1.928,21.961
	c0.724,5.415,1.2,10.86,1.436,16.315l-0.092-0.406c-1.126-1.659-9.025-12.964-20.164-12.746c-9.056,0.178-16.466,7.897-22.39,14.068
	c-2.088,2.175-3.672,4.146-4.756,5.583c3.78-0.607,9.356-1.06,15.83,0.191c5.124,0.99,7.031,2.316,10.43,2.912
	c4.695,0.822,11.637,0.139,21.243-6.818c0.094,3.433,0.095,6.868-0.012,10.303c-0.11,3.522-0.401,6.98-1.046,10.321
	c-0.101,0.06-0.2,0.116-0.301,0.176l0.098,0.797c-1.095,5.068-3.06,9.848-6.546,14.131c-3.477,4.273-7.775,7.742-12.255,10.948
	l-0.33-2.279c-0.993-1.742-7.991-13.626-19.113-14.274c-9.042-0.526-17.029,6.595-23.415,12.287
	c-2.25,2.007-3.983,3.848-5.175,5.196c3.816-0.312,9.41-0.33,15.768,1.42c5.033,1.385,6.83,2.855,10.172,3.712
	c3.901,1.001,9.487,1.055,17.228-2.687c-0.7,0.476-1.398,0.951-2.093,1.426c-6.651,4.544-13.401,9.229-18.502,15.555
	c-1.407,1.745-2.663,3.593-3.8,5.513c-0.029,0.017-0.057,0.033-0.086,0.05l0.009,0.076c-3.61,6.138-5.977,13.033-7.85,19.852
	c-5.128,18.667-5.85,38.411-2.221,57.419C888.216,697.179,889.578,696.911,889.41,696.032z"/><path fill="#DED9FF" d="M819.641 721.44c3.917-3.31 10.334-1.713 13.604 2.224 3.27 3.936 4.026 9.402 3.912 14.536-.184 8.305-2.122 15.82-4.493 23.584 5.089-5.784 10.386-11.383 15.841-16.796 3.607-3.58 7.298-7.082 11.063-10.506-7.384-8.859-12.055-19.961-13.19-31.441-.429-4.351-.101-9.35 3.245-12.163 3.91-3.287 10.328-1.69 13.602 2.231 3.274 3.921 4.038 9.359 3.931 14.466-.179 8.575-2.249 16.302-4.729 24.337 11.722-10.418 24.184-20.016 37.386-28.46-5.711-9.825-8.477-21.348-7.786-32.694.265-4.364 1.381-9.248 5.132-11.495 4.382-2.625 10.465-.03 13.075 4.361 2.611 4.39 2.504 9.88 1.588 14.906-1.483 8.143-4.578 15.228-8.139 22.489 14.056-8.682 29.43-16.4 45.741-19.317.339-.061.682-.106 1.022-.165-4.369-10.627-5.507-22.57-3.178-33.825.886-4.282 2.688-8.956 6.72-10.645 4.712-1.972 10.363 1.465 12.32 6.183 1.957 4.718 1.067 10.136-.556 14.98-2.86 8.534-7.429 15.557-12.472 22.852 18.933-2.856 38.474-2.234 57.278-5.736-4.557-10.763-5.78-22.92-3.41-34.369.885-4.281 2.687-8.957 6.721-10.645 4.711-1.972 10.362 1.465 12.319 6.182 1.957 4.718 1.067 10.137-.556 14.98-2.937 8.763-7.676 15.933-12.881 23.44 4.684-.959 9.318-2.191 13.881-3.826 9.24-3.31 17.681-8.568 25.099-15.118-7.476-9.334-11.977-21.022-12.652-32.963-.246-4.365.291-9.346 3.753-12.017 4.045-3.119 10.39-1.254 13.496 2.801 3.106 4.055 3.641 9.521 3.32 14.618-.589 9.349-3.386 17.592-6.534 26.315 11.751-10.818 20.789-24.901 26.119-39.57-5.701-9.232-8.775-20.081-8.698-30.934.032-4.373.885-9.309 4.51-11.754 4.235-2.856 10.449-.59 13.291 3.654 2.842 4.244 3.028 9.733 2.383 14.8-1.029 8.083-3.673 15.225-6.776 22.546.041.293.021.611-.095.954-4.257 12.587-11.092 24.242-19.677 34.363-1.893 2.232-3.877 4.405-5.941 6.504 9.696-4.173 20.538-5.677 30.996-4.219 4.33.603 9.113 2.097 11.062 6.01 2.277 4.573-.783 10.435-5.363 12.697-4.58 2.262-10.046 1.727-14.985.425-9.212-2.431-16.861-6.881-24.959-11.757-4.522 4.209-9.432 7.994-14.807 11.023-8.141 4.587-16.822 7.419-25.767 9.279 10.874.546 21.587 4.192 30.498 10.454 3.577 2.514 7.152 6.025 7.099 10.397-.062 5.107-5.46 8.927-10.568 8.85-5.107-.078-9.726-3.048-13.526-6.461-7.281-6.542-12.121-14.228-17.251-22.514-14.84 2.638-30.296 2.917-45.146 4.283-4.675.43-9.301.988-13.875 1.793 11.823-.005 23.626 3.692 33.31 10.478 3.58 2.509 7.159 6.016 7.113 10.387-.055 5.108-5.449 8.935-10.556 8.863-5.107-.071-9.731-3.035-13.535-6.444-7.456-6.681-12.359-14.562-17.633-23.057-4.866.912-9.667 2.13-14.39 3.831-8.639 3.111-16.913 7.201-24.87 11.763-2.116 1.213-4.21 2.466-6.287 3.747 10.672-1.025 21.63.945 31.25 5.686 3.922 1.933 7.994 4.851 8.615 9.179.726 5.057-4.02 9.662-9.078 10.372-5.058.71-10.08-1.513-14.36-4.302-7.909-5.151-13.738-11.702-19.833-18.795-12.896 8.251-25.038 17.734-36.466 27.923 10.534-3.773 22.168-4.448 33.055-1.85 4.252 1.015 8.871 2.958 10.436 7.04 1.828 4.769-1.777 10.313-6.553 12.126-4.775 1.814-10.164.76-14.956-1.009-9.093-3.358-16.376-8.643-24.119-14.384-1.504 1.363-3 2.734-4.479 4.118-8.118 7.602-15.923 15.601-23.257 24.006 10.316-3.517 21.63-4.09 32.235-1.558 4.253 1.015 8.871 2.958 10.437 7.04 1.828 4.769-1.778 10.313-6.553 12.127-4.775 1.813-10.164.759-14.956-1.01-8.844-3.265-15.974-8.353-23.481-13.909-8.246 9.682-15.858 19.895-22.587 30.667-1.402 2.243-4.785-.085-3.386-2.324 6.795-10.877 14.504-21.176 22.836-30.945-7.409-8.909-12.09-20.09-13.211-31.661C815.953 729.3 816.288 724.274 819.641 721.44zM487.188 696.032c3.245-17 2.999-34.618-.865-51.497-1.812-7.915-4.212-16.007-8.13-23.192l-.093.754c-1.033 1.903-8.316 14.891-20.307 15.844-9.749.774-18.534-6.73-25.557-12.73-2.475-2.114-4.387-4.064-5.705-5.492 4.126.25 10.165.142 16.989-1.892 5.401-1.61 7.308-3.238 10.896-4.24 4.635-1.294 11.523-1.383 21.441 3.886-4.558-6.794-10.954-11.849-17.62-16.493-6.621-4.612-13.601-8.896-19.341-14.629-4.385-4.38-7.55-9.457-9.297-15.244-1.984 3.422-8.985 14.174-19.855 15.038-9.749.774-18.533-6.73-25.556-12.73-2.475-2.114-4.387-4.063-5.705-5.492 4.126.25 10.165.142 16.989-1.891 5.401-1.61 7.308-3.238 10.896-4.24 4.736-1.322 11.822-1.389 22.092 4.235-1.388-8.731-1.023-17.935-.441-26.707.287-4.321.832-8.606 1.401-12.887-2.678 4.243-9.325 13.031-19.11 13.808-9.749.774-18.533-6.731-25.556-12.73-2.475-2.114-4.387-4.064-5.705-5.492 4.126.25 10.165.142 16.989-1.892 5.4-1.609 7.308-3.238 10.895-4.24 4.909-1.37 12.343-1.392 23.23 4.875.279-2.207.538-4.418.741-6.636.886-9.653-.117-19.308-6.372-27.065l-.194 1.572c-1.032 1.903-8.315 14.891-20.307 15.843-9.748.774-18.533-6.73-25.556-12.729-2.475-2.115-4.388-4.063-5.705-5.492 4.126.249 10.165.142 16.989-1.892 5.401-1.61 7.308-3.238 10.896-4.239 4.517-1.262 11.174-1.379 20.693 3.495-5.073-4.807-11.398-8.206-17.797-11.14l-2.164 1.369c-2.211.424-17.455 3.132-26.126-5.882-7.049-7.328-6.807-19.338-6.613-28.939.068-3.384.375-6.206.654-8.207 2.52 3.482 6.588 8.266 12.721 12.412 4.854 3.281 7.421 3.74 10.592 5.965 4.348 3.05 9.278 9.033 11.409 21.978 6.293 2.892 12.452 6.203 17.602 10.835 5.25 4.722 8.746 10.655 10.184 17.415.538-5.006 2.478-13.878 9.521-18.367 7.638-4.869 18.083-2.546 26.434-.689 2.943.654 5.354 1.417 7.052 2.013-3.483 1.588-8.376 4.3-13.075 8.927-3.718 3.663-4.571 5.823-7.07 8.201-3.508 3.337-9.802 6.668-22.021 6.067l-.107-.279c.371 7.349-.957 14.703-1.928 21.961-.724 5.415-1.2 10.86-1.436 16.315l.092-.406c1.126-1.659 9.025-12.964 20.164-12.746 9.056.178 16.466 7.897 22.39 14.068 2.088 2.175 3.672 4.146 4.756 5.583-3.78-.607-9.356-1.06-15.83.191-5.124.99-7.031 2.316-10.43 2.912-4.695.822-11.637.139-21.243-6.818-.094 3.433-.095 6.868.012 10.303.11 3.522.401 6.98 1.046 10.321.101.06.2.116.301.176l-.099.797c1.095 5.068 3.06 9.848 6.546 14.131 3.477 4.273 7.775 7.742 12.255 10.948l.33-2.279c.993-1.742 7.991-13.626 19.113-14.274 9.042-.526 17.029 6.595 23.415 12.287 2.25 2.007 3.983 3.848 5.175 5.196-3.816-.312-9.41-.33-15.768 1.42-5.033 1.385-6.83 2.855-10.172 3.712-3.901 1.001-9.487 1.055-17.228-2.687.699.476 1.398.951 2.093 1.426 6.651 4.544 13.401 9.229 18.501 15.555 1.407 1.745 2.663 3.593 3.8 5.513.029.017.057.033.086.05l-.009.076c3.61 6.138 5.977 13.033 7.85 19.852 5.127 18.667 5.85 38.411 2.221 57.419C488.382 697.179 487.02 696.911 487.188 696.032z"/><path fill="#DED9FF" d="M556.957,721.44c-3.917-3.31-10.334-1.713-13.604,2.224c-3.27,3.936-4.026,9.402-3.912,14.536
		c0.184,8.305,2.122,15.82,4.493,23.584c-5.089-5.784-10.386-11.383-15.841-16.796c-3.607-3.58-7.298-7.082-11.063-10.506
		c7.384-8.859,12.055-19.961,13.19-31.441c0.429-4.351,0.101-9.35-3.245-12.163c-3.91-3.287-10.328-1.69-13.602,2.231
		c-3.274,3.921-4.038,9.359-3.931,14.466c0.179,8.575,2.249,16.302,4.729,24.337c-11.722-10.418-24.184-20.016-37.386-28.46
		c5.711-9.825,8.477-21.348,7.786-32.694c-0.265-4.364-1.381-9.248-5.132-11.495c-4.382-2.625-10.465-0.03-13.075,4.361
		c-2.611,4.39-2.504,9.88-1.588,14.906c1.483,8.143,4.579,15.228,8.139,22.489c-14.056-8.682-29.43-16.4-45.741-19.317
		c-0.339-0.061-0.682-0.106-1.022-0.165c4.369-10.627,5.507-22.57,3.178-33.825c-0.886-4.282-2.688-8.956-6.72-10.645
		c-4.712-1.972-10.363,1.465-12.319,6.183c-1.957,4.718-1.067,10.136,0.556,14.98c2.86,8.534,7.429,15.557,12.472,22.852
		c-18.933-2.856-38.474-2.234-57.278-5.736c4.557-10.763,5.78-22.92,3.411-34.369c-0.885-4.281-2.687-8.957-6.721-10.645
		c-4.711-1.972-10.361,1.465-12.319,6.182s-1.067,10.137,0.556,14.98c2.937,8.763,7.676,15.933,12.881,23.44
		c-4.684-0.959-9.318-2.191-13.881-3.826c-9.24-3.31-17.681-8.568-25.099-15.118c7.476-9.334,11.977-21.022,12.652-32.963
		c0.246-4.365-0.291-9.346-3.753-12.017c-4.045-3.119-10.39-1.254-13.496,2.801c-3.106,4.055-3.641,9.521-3.32,14.618
		c0.589,9.349,3.386,17.592,6.534,26.315c-11.751-10.818-20.789-24.901-26.119-39.57c5.701-9.232,8.775-20.081,8.698-30.934
		c-0.032-4.373-0.885-9.309-4.51-11.754c-4.235-2.856-10.449-0.59-13.291,3.654c-2.842,4.244-3.028,9.733-2.383,14.8
		c1.029,8.083,3.673,15.225,6.776,22.546c-0.041,0.293-0.021,0.611,0.095,0.954c4.257,12.587,11.092,24.242,19.677,34.363
		c1.893,2.232,3.877,4.405,5.941,6.504c-9.696-4.173-20.538-5.677-30.996-4.219c-4.331,0.603-9.113,2.097-11.062,6.01
		c-2.277,4.573,0.783,10.435,5.363,12.697c4.58,2.262,10.046,1.727,14.985,0.425c9.212-2.431,16.861-6.881,24.959-11.757
		c4.522,4.209,9.432,7.994,14.808,11.023c8.141,4.587,16.822,7.419,25.767,9.279c-10.874,0.546-21.587,4.192-30.498,10.454
		c-3.577,2.514-7.152,6.025-7.099,10.397c0.062,5.107,5.46,8.927,10.568,8.85c5.107-0.078,9.726-3.048,13.526-6.461
		c7.281-6.542,12.121-14.228,17.251-22.514c14.84,2.638,30.296,2.917,45.146,4.283c4.674,0.43,9.301,0.988,13.875,1.793
		c-11.823-0.005-23.626,3.692-33.31,10.478c-3.58,2.509-7.159,6.016-7.113,10.387c0.055,5.108,5.449,8.935,10.556,8.863
		c5.107-0.071,9.731-3.035,13.535-6.444c7.456-6.681,12.359-14.562,17.633-23.057c4.866,0.912,9.667,2.13,14.39,3.831
		c8.639,3.111,16.913,7.201,24.87,11.763c2.116,1.213,4.21,2.466,6.287,3.747c-10.672-1.025-21.63,0.945-31.25,5.686
		c-3.922,1.933-7.994,4.851-8.615,9.179c-0.726,5.057,4.02,9.662,9.078,10.372c5.058,0.71,10.08-1.513,14.36-4.302
		c7.909-5.151,13.738-11.702,19.833-18.795c12.896,8.251,25.038,17.734,36.466,27.923c-10.534-3.773-22.168-4.448-33.055-1.85
		c-4.252,1.015-8.871,2.958-10.436,7.04c-1.828,4.769,1.777,10.313,6.553,12.126c4.775,1.814,10.164,0.76,14.956-1.009
		c9.093-3.358,16.376-8.643,24.119-14.384c1.504,1.363,3,2.734,4.479,4.118c8.118,7.602,15.923,15.601,23.257,24.006
		c-10.316-3.517-21.63-4.09-32.235-1.558c-4.253,1.015-8.871,2.958-10.437,7.04c-1.828,4.769,1.778,10.313,6.553,12.127
		c4.775,1.813,10.164,0.759,14.956-1.01c8.844-3.265,15.974-8.353,23.481-13.909c8.246,9.682,15.858,19.895,22.587,30.667
		c1.402,2.243,4.785-0.085,3.386-2.324c-6.795-10.877-14.504-21.176-22.836-30.945c7.409-8.909,12.09-20.09,13.211-31.661
		C560.645,729.3,560.309,724.274,556.957,721.44z"/><path fill="#816EFF" d="M218.16,617.598c-2.669,0-4.832,2.164-4.832,4.832v156.523v16.017v11.185c0,2.669,2.164,4.832,4.832,4.832
	h11.567c2.669,0,4.832-2.163,4.832-4.832v-6.353c0-2.669,2.164-4.832,4.832-4.832h146.352c2.669,0,4.832,2.164,4.832,4.832v6.353
	c0,2.669,2.164,4.832,4.832,4.832h11.567c2.669,0,4.832-2.163,4.832-4.832v-11.185v-16.017V622.431c0-2.669-2.163-4.832-4.832-4.832
	H218.16z"/><path fill="#FFF" d="M394.866,659.229H230.31c-1.276,0-2.31-1.034-2.31-2.31v-27.188c0-1.276,1.034-2.31,2.31-2.31h164.557
	c1.276,0,2.31,1.034,2.31,2.31v27.188C397.176,658.195,396.142,659.229,394.866,659.229z"/><path fill="#E0E3FF" d="M392.127,627.422h-0.1c0.075,0.347,0.12,0.704,0.12,1.073v10.745c0,8.844-7.169,16.013-16.013,16.013H228.12
	c0.493,2.272,2.51,3.976,4.93,3.976h159.078c2.789,0,5.049-2.261,5.049-5.049v-21.709
	C397.176,629.682,394.916,627.422,392.127,627.422z"/><path fill="#FFF" d="M394.866,706.482H230.31c-1.276,0-2.31-1.034-2.31-2.31v-27.188c0-1.276,1.034-2.31,2.31-2.31h164.557
	c1.276,0,2.31,1.034,2.31,2.31v27.188C397.176,705.448,396.142,706.482,394.866,706.482z"/><path fill="#E0E3FF" d="M392.127,674.674h-0.297c0.194,0.536,0.317,1.107,0.317,1.71v15.984c0,5.95-4.824,10.774-10.774,10.774
	H228.317c0.703,1.943,2.546,3.34,4.732,3.34h159.078c2.789,0,5.049-2.261,5.049-5.049v-21.708
	C397.176,676.935,394.916,674.674,392.127,674.674z"/><path fill="#FFF" d="M300.715,781.328h-68.734c-2.199,0-3.981-1.782-3.981-3.981v-54.301c0-2.199,1.782-3.981,3.981-3.981h68.734
	c2.199,0,3.981,1.782,3.981,3.981v54.302C304.696,779.545,302.913,781.328,300.715,781.328z"/><path fill="#E0E3FF" d="M298.825,719.152c0.058,0.361,0.096,0.728,0.096,1.105v41.674c0,7.55-6.121,13.671-13.671,13.671h-56.107
	c-0.357,0-0.705-0.035-1.047-0.088c0.53,3.294,3.378,5.813,6.822,5.813h62.86c3.821,0,6.918-3.097,6.918-6.918v-48.427
	C304.696,722.519,302.147,719.658,298.825,719.152z"/><path fill="#FFF" d="M393.195,781.328h-69.052c-2.199,0-3.981-1.782-3.981-3.981v-54.301c0-2.199,1.782-3.981,3.981-3.981h69.052
	c2.199,0,3.981,1.782,3.981,3.981v54.301C397.176,779.545,395.394,781.328,393.195,781.328z"/><path fill="#E0E3FF" d="M392.133,719.328c0.437,0.908,0.69,1.921,0.69,2.996v41.163c0,7.833-6.35,14.183-14.183,14.183h-55.913
	c-0.651,0-1.278-0.096-1.875-0.264c1.117,2.318,3.483,3.922,6.228,3.922h63.178c3.821,0,6.918-3.097,6.918-6.918v-48.427
	C397.176,722.812,395.042,720.147,392.133,719.328z"/><path fill="#816EFF" d="M307.558,644.439c0-3.887,3.151-7.037,7.037-7.037c3.887,0,7.038,3.151,7.038,7.037
	c0,3.887-3.151,7.037-7.038,7.037C310.709,651.476,307.558,648.325,307.558,644.439z"/><path fill="#6D59F0" d="M316.921,637.803c1.633,1.289,2.685,3.281,2.685,5.523c0,3.887-3.151,7.037-7.037,7.037
	c-0.816,0-1.597-0.146-2.326-0.402c1.198,0.946,2.708,1.515,4.353,1.515c3.887,0,7.038-3.151,7.038-7.037
	C321.633,641.368,319.663,638.764,316.921,637.803z"/><path fill="#816EFF" d="M307.558,689.147c0-3.887,3.151-7.037,7.037-7.037c3.887,0,7.038,3.151,7.038,7.037
	c0,3.887-3.151,7.037-7.038,7.037C310.709,696.184,307.558,693.034,307.558,689.147z"/><path fill="#6D59F0" d="M316.921,682.511c1.633,1.289,2.685,3.281,2.685,5.523c0,3.887-3.151,7.038-7.037,7.038
	c-0.816,0-1.597-0.146-2.326-0.402c1.198,0.946,2.708,1.515,4.353,1.515c3.887,0,7.038-3.151,7.038-7.037
	C321.633,686.076,319.663,683.472,316.921,682.511z"/><circle cx="264.926" cy="750.196" r="7.037" fill="#816EFF"/><path fill="#6D59F0" d="M267.252,743.56c1.633,1.289,2.684,3.281,2.684,5.523c0,3.887-3.151,7.037-7.038,7.037
	c-0.816,0-1.596-0.146-2.325-0.402c1.198,0.946,2.708,1.515,4.353,1.515c3.887,0,7.037-3.151,7.037-7.037
	C271.964,747.125,269.994,744.521,267.252,743.56z"/><circle cx="358.669" cy="750.196" r="7.037" fill="#816EFF"/><path fill="#6D59F0" d="M360.994,743.56c1.633,1.289,2.685,3.281,2.685,5.523c0,3.887-3.151,7.037-7.038,7.037
	c-0.816,0-1.596-0.146-2.325-0.402c1.198,0.946,2.708,1.515,4.353,1.515c3.887,0,7.037-3.151,7.037-7.037
	C365.707,747.125,363.737,744.521,360.994,743.56z"/><path fill="#1F1C80" d="M941.009,521.613c-11.283-83.208-117.85-103.412-150.176-172.245c-3.149-13.365,0.118-29.512,1.852-48.38
	c7.977-87.145-43.591-102.846-76.687-97.28c-32.606-12.806-82.47-4.396-104.32,34.44c-25.508,45.34,10.931,114.285-32.623,150.255
	c-45.364,37.465-143.705,155.117-72.266,208.483c1.552,1.169,3.181,2.289,4.896,3.38h0.01c12.594,6.994,25.845,12.411,39.523,16.609
	c0.009,0.01,0.029,0.01,0.058,0.019c9.857,3.032,19.933,5.426,30.151,7.336c2.629,0.496,5.268,0.954,7.916,1.383
	c3.751,0.615,7.51,1.163,11.289,1.653c8.368,1.11,16.793,1.949,25.227,2.614l0.049,0c18.113,1.41,36.261,1.98,53.982,2.436h0.029
	c4.626,0.031,9.251,0.023,13.876-0.043c1.545-0.009,3.089-0.037,4.625-0.066c2.268-0.042,4.538-0.094,6.816-0.165
	c1.304-0.027,2.607-0.064,3.91-0.11c0.366-0.012,0.733-0.024,1.101-0.036c1.515-0.057,3.031-0.114,4.547-0.181
	c2.143-0.08,4.286-0.18,6.429-0.279c0.753-0.033,1.496-0.076,2.24-0.11c0.473-0.022,0.936-0.054,1.4-0.076
	c1.014-0.054,2.037-0.109,3.06-0.172c1.062-0.054,2.123-0.119,3.185-0.192c2.134-0.129,4.277-0.267,6.409-0.424
	c2.259-0.158,4.536-0.326,6.795-0.503c0.501-0.042,1.003-0.083,1.505-0.125c5.965-0.489,11.929-1.035,17.873-1.669
	c4.052-0.681,8.316-1.333,12.774-1.977h0.009c5.017-0.725,10.266-1.441,15.669-2.178c6.407-0.878,13.034-1.795,19.778-2.8h0.009
	c0.106-0.01,0.213-0.03,0.319-0.05c8.693-1.307,17.568-2.768,26.402-4.52c3.829-0.766,7.648-1.58,11.447-2.462h0.01
	c18.37-4.26,36.074-10.041,50.915-18.51C926.65,581.043,943.744,558.377,941.009,521.613z M560.776,408.931
	c55.777-38.292,42.835-72.594,53.861-142.048c-1.971,13.038-1.943,27.744,0.635,44.067c10.82,68.437-49.22,96.907-91.912,142.589
	C533.274,436.728,546.184,421.84,560.776,408.931z M899.949,592.188c0,0.01-0.009,0.01-0.009,0.01
	c-13.611,8.915-29.622,15.285-45.659,18.903c4.934-1.545,9.888-3.167,14.745-4.972c0.645-0.245,1.291-0.49,1.927-0.735
	c0.472-0.177,0.944-0.363,1.416-0.549c3.883-1.51,7.697-3.183,11.404-5.039c1.3-0.635,2.561-1.29,3.773-1.944
	c4.1-2.245,8.045-4.769,11.774-7.649c0,0,0,0,0-0.009l0.01-0.01c3.569-3.893,6.704-7.793,9.404-11.69c0,0,0.009,0,0-0.01
	c48.118-68.994-32.652-137.679-87.026-177.192c-9.596-7.987-20.214-20.517-27.063-39.238
	c35.635,58.52,117.159,77.76,138.746,146.347C945.551,545.427,927.729,574.046,899.949,592.188z"/><path fill="#FF8FCF" d="M809.212,483.071c9.828,2.949,105.354,130.915,90.277,174.844c-12.354,35.998-96.867,131.032-96.867,131.032
	l-39.799-24.246l64.532-104.492l-81.809-114.331L809.212,483.071z"/><circle cx="697.557" cy="298.835" r="95.127" fill="#1F1C80"/><path fill="#FF8FCF" d="M808.734,789.562L582.74,786.5c40.285-30.748-14.026-211.933-13.549-283.413
	c0.238-35.708,89.193-57.138,98.485-59.508c14.576-0.067,37.791,0.56,57.444,1.291c42.232,1.57,109.523,41.94,101.336,78.937
	C806.645,613.322,769.694,776.885,808.734,789.562z"/><path fill="#F9CBCB" d="M726.537,445.673c-0.241,4.52-30.012,46.418-30.012,46.418l-32.652-48.535
	c2.371-12.318,9.954-51.702,12.187-63.339l42.146,0.858l0.264,2.025L726.537,445.673z"/><path fill="#EBB0B0" d="M726.537,445.673c-10.982-13.004-15.098-52.254-53.807-47.696l3.318-17.279l42.146,0.858l0.275,1.545
	L726.537,445.673z"/><path fill="#F9CBCB" d="M628.313 312.823l5.12 33.723c-.449-.113-.691-.263-1.109-.189 0 0 0 0-.033-.186-55.956-8.369-50.405-61.997-12.998-51.373C619.596 301.141 624.578 307.08 628.313 312.823zM759.134 356.051c-1.211.309-2.382.435-3.778.704.19-.509 5.722-28.808 6.004-30.185 3.46-5.404 6.377-11.339 8.827-17.734C800.055 299.423 807.464 344.6 759.134 356.051z"/><path fill="#F9CBCB" d="M777.521,303.867c-2.378,111.444-151.833,130.078-163.491-4.415
	C621.511,171.266,785.181,195.987,777.521,303.867z"/><path fill="#1F1C80" d="M778.824,265.792c-4.267-17.97-19.455-55.82-67.568-59.261c-10.411-0.736-71.546-9.646-95.14,48.468
	c-4.489,11.029-12.589,62.915,17.936,101.447c-23.669-78.405,15.921-79.721,17.086-114.819c7.713-1.598,15.154-2.134,22.312-1.803
	c5.238,0.805,10.353,2.083,15.181,3.973c13.877,5.366,24.681,15.711,32.659,27.519c8.164,11.806,14.029,24.981,20.136,38.085
	c3.034,6.568,6.137,13.157,9.735,19.553c3.683,6.299,7.81,12.673,13.784,17.323c-5.122-5.396-8.619-11.749-11.515-18.318
	c-3.003-6.526-5.575-13.239-8.29-19.928c-5.361-13.384-11.096-26.885-19.53-39.254c-4.274-6.122-9.211-11.959-15.15-16.915
	c-1.826-1.51-3.769-2.904-5.764-4.233c37.136,17.583,61.172,62.081,63.566,108.817c5-4.999,11.25-39.936,12.143-53.641
	C781.169,290.63,780.798,274.086,778.824,265.792z"/><path fill="#FFF" d="M688.299 593.065c-.175-12.012 18.693-12.012 18.516.001C706.99 605.077 688.122 605.077 688.299 593.065zM688.299 624.078c-.175-12.011 18.693-12.012 18.516.001C706.99 636.09 688.122 636.09 688.299 624.078zM688.299 523.807c-.175-12.011 18.693-12.012 18.516.001C706.99 535.818 688.122 535.819 688.299 523.807zM688.299 554.821c-.175-12.012 18.693-12.012 18.516.001C706.99 566.832 688.122 566.832 688.299 554.821zM794.928 545.877h-53.255c-4.84.073-4.86-7.923 0-7.85h53.255C799.768 537.955 799.788 545.951 794.928 545.877zM663.874 443.556c-11.184 1.573-37.403 6.505-43.956 15.233 23.842 6.009 59.381 15.705 76.608 33.301L663.874 443.556z"/><path fill="#FFF" d="M726.439,444.908c11.677,0,35.614,4.266,47.014,13.616c-23.842,6.009-59.701,15.97-76.928,33.567
	L726.439,444.908z"/><path fill="#FF8FCF" d="M600.49,467.823c-39.88,15.407-130.731,149.842-107.413,197.459c16.738,34.18,88.786,123.665,88.786,123.665
	l39.799-24.246l-64.532-104.492l81.809-114.331L600.49,467.823z"/><path fill="#FFF" d="M832.533,585.574h-288.47c-15.363,0-27.333,13.324-25.692,28.6l18.705,174.137
	c1.41,13.127,12.489,23.08,25.692,23.08h251.06c13.203,0,24.282-9.953,25.692-23.08l18.705-174.137
	C859.866,598.898,847.896,585.574,832.533,585.574z"/><path fill="#D8DCF5" d="M832.533,585.574h-3.824c-0.023,0.336-0.045,0.672-0.081,1.01L815.099,712.53
	c-4.354,40.536-38.567,71.271-79.336,71.271H536.591l0.484,4.509c1.41,13.127,12.489,23.081,25.692,23.081h251.06
	c13.203,0,24.282-9.953,25.692-23.08l18.705-174.137C859.866,598.898,847.896,585.574,832.533,585.574z"/><path fill="#D8DCF5" d="M699.767,672.14h-26.383c-4.694,0-8.5,3.806-8.5,8.5v26.383c0,4.694,3.806,8.5,8.5,8.5h26.383
	c4.694,0,8.5-3.806,8.5-8.5V680.64C708.267,675.945,704.462,672.14,699.767,672.14z"/><path fill="#DED9FF" d="M1199.478 814.815c0 1.175-.537 2.233-1.398 3.002-.86.769-2.056 1.25-3.359 1.25H160.233c-2.618 0-4.745-1.901-4.745-4.252 0-1.164.526-2.233 1.386-3.002.861-.769 2.056-1.25 3.359-1.25h1034.488C1197.339 810.563 1199.478 812.476 1199.478 814.815zM131.937 819.072H52.664c-2.068 0-3.744-1.676-3.744-3.744v-1.015c0-2.068 1.676-3.744 3.744-3.744h79.273c2.068 0 3.744 1.676 3.744 3.744v1.015C135.681 817.396 134.005 819.072 131.937 819.072zM1311.336 819.072h-79.273c-2.068 0-3.744-1.676-3.744-3.744v-1.015c0-2.068 1.676-3.744 3.744-3.744h79.273c2.068 0 3.744 1.676 3.744 3.744v1.015C1315.08 817.396 1313.404 819.072 1311.336 819.072z"/><path fill="#5D70C2" d="M313.498 555.593c-2.009-3.245-3.222-6.92-3.861-10.714l.27.373c2.684 1.537 6.333.563 8.436-1.601 2.104-2.165 2.919-5.22 3.159-8.185-2.064 1.587-4.764 2.144-7.246 3.039-1.946.702-3.913 1.795-5.009 3.415-.306-3.345-.213-6.72.153-9.922.118-1.027.295-2.045.453-3.065 2.864 1.479 6.558.444 8.926-1.648 2.385-2.107 3.727-5.058 5.004-7.922-1.286 1.327-3.206 1.904-5.073 2.238-1.866.334-3.796.485-5.545 1.183-.982.392-1.904 1.013-2.572 1.796.871-4.536 1.912-9.042 2.693-13.594.158-.924.275-1.853.404-2.781l.096.438c2.051 1.521 5.059 1.466 7.293.264 2.233-1.202 3.754-3.368 4.627-5.68.872-2.311 1.163-4.787 1.447-7.237-2.285 2.189-6.227 1.52-9.075 2.988-1.758.906-2.891 2.508-3.772 4.265.05-.458.106-.915.155-1.373.228-2.154.427-4.326.337-6.498-.107-2.576-.816-4.893-1.961-7.024 1.024-2.263.805-5.022-.356-7.285-1.357-2.643-3.824-4.654-6.54-6.037-2.715-1.382-5.692-2.198-8.647-2.989-.747 2.911-1.024 5.983-.367 8.932.656 2.949 2.312 5.769 4.876 7.537 2.564 1.768 6.072 2.352 8.934 1.153l.732-.105c.887 1.8 1.436 3.742 1.536 5.884.103 2.203-.136 4.408-.372 6.593-.105.966-.222 1.929-.335 2.894-1.711-1.724-3.597-3.299-5.773-4.428-2.575-1.337-5.581-2.031-8.44-1.536-3.271.567-6.406 2.639-9.648 1.861 2.677 3.63 6.086 6.963 10.408 8.551 4.323 1.588 9.678 1.076 12.827-2.106l.387-.344c-.191 1.474-.402 2.945-.662 4.41-.904 5.111-2.121 10.244-2.996 15.397l.091-1.111c-.055-1.694-1.305-3.201-2.824-4.089-1.519-.888-3.288-1.268-5.02-1.634-2.126-.449-4.252-.898-6.378-1.347-.268-.056-.56-.11-.802.006-.376.181-.442.662-.435 1.068.062 3.386 2.039 6.709 5.059 8.506 2.972 1.768 6.854 1.992 9.991.603-.61 4.065-.946 8.143-.694 12.231-.641-1.578-2.203-2.741-3.889-3.305-1.831-.612-3.802-.64-5.732-.661-2.21-.024-4.419-.049-6.628-.073-.249-.003-.526.004-.703.17-.227.212-.178.569-.102.866.866 3.341 3.389 6.272 6.654 7.727 3.265 1.456 7.202 1.406 10.383-.132l.131-3.188c.2 2.08.547 4.164 1.117 6.249.622 2.281 1.507 4.495 2.645 6.574-1.923-1.516-4.796-1.405-7.225-.8-2.559.637-5.114 1.687-7.749 1.367 1.216 3.153 4.239 5.622 7.676 6.27 3.436.647 7.162-.551 9.458-3.042l-.885-1.702c1.48 2.206 3.283 4.209 5.47 5.871.915.696 2.044-.634 1.129-1.33-1.001-.761-1.897-1.594-2.727-2.469 1.081.124 2.277-.255 3.107-.959 1.303-1.105 1.923-2.755 2.495-4.334.53-1.461 1.06-2.923 1.59-4.384C319.827 550.993 315.824 552.522 313.498 555.593zM362.5 508.734c-1.718.522-3.523.679-5.283 1.041-1.759.363-3.537.969-4.834 2.211-1.198 1.148-1.866 2.944-1.403 4.512-2.715 1.512-5.174 3.444-7.378 5.65 1.135-2.101 1.026-4.791.065-7.012-1.076-2.49-3.058-4.475-5.16-6.189-1.037 2.7-1.931 5.588-1.478 8.445.453 2.853 2.638 5.622 5.518 5.83-1.341 1.452-2.578 3.004-3.695 4.634-1.03 1.504-1.93 3.075-2.761 4.678-.003-1.166-.458-2.352-1.162-3.303-1.008-1.364-2.442-2.342-3.847-3.292-.31-.21-.697-.428-1.038-.273-.246.112-.374.383-.466.638-.652 1.815-.468 3.913.492 5.586.959 1.674 2.677 2.893 4.573 3.246l.342-.323c-1.287 2.836-2.321 5.782-3.144 8.796-.537-1.045-1.409-1.94-2.403-2.589-1.505-.982-3.26-1.496-4.986-1.996 1.321 1.253.591 3.528 1.342 5.186.429.949 1.334 1.625 2.317 1.969.953.334 1.981.385 2.992.354-.449 1.954-.832 3.924-1.146 5.899-.099.622-.175 1.247-.264 1.871-1.03-1.696-2.952-2.849-4.944-2.859.31 1.338.651 2.738 1.57 3.759.77.855 2.081 1.308 3.116.929-.385 3.012-.677 6.036-.934 9.062-1.089-1.25-2.697-2.058-4.36-2.067.31 1.338.651 2.738 1.57 3.759.638.709 1.647 1.136 2.564 1.051-.027.344-.057.688-.085 1.031-.071.888 1.302 1.179 1.374.28.025-.311.052-.627.077-.939 1.549.455 3.247.408 4.756-.171 1.968-.755 3.578-2.394 4.297-4.375-.822.64-1.953.709-2.989.598-1.036-.111-2.067-.374-3.107-.296-1.039.077-2.137.596-2.511 1.569l-.25.293c.19-2.222.402-4.469.657-6.721 1.932 1.511 4.802 1.786 6.922.525 2.093-1.245 3.216-3.599 4.222-5.818-1.065.837-2.532.939-3.882.818-1.35-.121-2.7-.429-4.046-.278-1.098.124-2.222.654-2.82 1.545.425-3.167.961-6.325 1.68-9.42l-.014.876c1.275 1.665 3.687 2.183 5.698 1.591 2.011-.593 3.639-2.119 4.8-3.865-1.599-.102-3.197-.205-4.796-.307-1.954-.125-4.171-.139-5.563 1.207.762-3.188 1.726-6.301 2.957-9.286.824 1.333 2.26 2.242 3.802 2.559 1.643.338 3.365.075 4.941-.496 1.698-.616 3.266-1.591 4.57-2.841-1.43.481-3.008.137-4.412-.414-1.404-.551-2.735-1.306-4.196-1.682-1.154-.296-2.437-.297-3.503.18 1.558-3.213 3.496-6.23 5.886-8.989-.053 1.005.356 2.067 1.07 2.804 1.082 1.116 2.667 1.599 4.212 1.769 2.838.313 5.913-.387 7.907-2.432-2.713-1.156-5.426-2.313-8.139-3.469-1.042-.444-2.267-.86-3.298-.565.538-.541 1.069-1.087 1.65-1.603 1.605-1.427 3.355-2.677 5.213-3.733l.152.602c1.408 1.511 3.859 1.734 5.731.86 1.872-.873 3.198-2.652 3.963-4.57C361.968 512.857 362.237 510.783 362.5 508.734z"/><path fill="#5D70C2" d="M299.69,562.194c-1.579-0.59-3-1.424-4.293-2.42c0.942-0.352,1.741-1.127,2.165-2.054
	c0.587-1.281,0.548-2.778,0.178-4.137c-0.37-1.359-1.048-2.611-1.721-3.848c-0.078,1.705-1.16,3.169-1.963,4.675
	c-0.547,1.025-0.949,2.251-0.847,3.371c-1.919-1.998-3.493-4.365-4.761-6.844c1.009,0.227,2.174-0.219,2.831-1.058
	c0.819-1.046,0.943-2.506,0.641-3.8c-0.302-1.294-0.979-2.464-1.647-3.612c-1.532,1.277-2.715,2.944-3.486,4.782
	c-1.26-3.094-2.295-6.28-3.429-9.424c2.041-0.171,3.957-1.641,4.801-3.557c1.017-2.311,0.69-5.042-0.34-7.348
	c-3.027,1.46-5.18,4.537-5.621,7.858c-0.767-1.903-1.611-3.773-2.636-5.567c-0.437-0.765-0.903-1.508-1.401-2.228
	c0.225-0.126,0.753-2.113,0.498-3.055c-0.316-1.169-1.075-2.17-1.926-3.032c-3.226-3.266-8.062-4.859-12.598-4.149
	c2.541,2.831,2.026,7.635,4.857,10.176c1.311,1.178,3.166,1.637,4.922,1.483c0.928-0.081,1.83-0.327,2.696-0.673
	c1.484,2.125,2.658,4.477,3.683,6.887c-1.506-0.382-3.278-0.125-4.784,0.417c-2.343,0.843-4.603,2.203-7.092,2.168
	c1.256,2.603,4.024,4.405,6.912,4.5c2.499,0.082,4.987-1.12,6.536-3.073c0.144,0.399,0.299,0.8,0.438,1.197
	c1.042,2.969,2.057,5.986,3.289,8.893c-1.307-0.949-2.968-1.386-4.6-1.389c-1.927-0.003-3.815,0.493-5.678,0.986
	c0.785,2.324,2.87,4.161,5.274,4.649c2.168,0.44,4.516-0.241,6.152-1.723c1.185,2.414,2.582,4.713,4.372,6.783
	c0.457,0.53,0.951,1.021,1.451,1.503c-2.158-0.915-4.719-0.883-6.814,0.183c-1.504,0.765-2.721,1.978-4.043,3.026
	c-1.322,1.047-2.868,1.97-4.556,1.976c2.155-0.009,4.066,1.329,6.153,1.864c2.194,0.563,4.613,0.192,6.537-1.004
	c1.85-1.149,3.197-3.052,3.715-5.166c1.692,1.438,3.579,2.626,5.686,3.413C300.262,564.207,300.703,562.572,299.69,562.194z"/><polygon fill="#FF8FCF" points="338.933 569.896 338.145 576.137 332.896 617.598 286.676 617.598 280.88 576.137 280.012 569.896"/><path fill="#FF8FCF" d="M337.779,569.899h-56.612c-3.799,0-6.879-2.511-6.879-5.61l0,0c0-3.098,3.08-5.61,6.879-5.61h56.612
	c3.799,0,6.879,2.512,6.879,5.61l0,0C344.658,567.388,341.578,569.899,337.779,569.899z"/><path fill="#F07DBF" d="M280.012,569.896l1.181,8.473c26.947-2.166,49.194,15.381,51.704,39.229
	c1.998-15.924,6.439-49.883,6.036-47.702H280.012z"/><path fill="#FFF" d="M1164.604,778.492v26.785h-77.857c-7.387,0-13.397-6-13.397-13.387c0-7.387,6.011-13.398,13.397-13.398
	H1164.604z"/><path fill="#FF8FCF" d="M1086.747,778.492c-11.688,0-19.931,15.049-6.369,26.785h84.226v5.291H938.705v-37.368h225.899v5.291
	H1086.747z"/><path fill="#F25CA9" d="M1073.35,791.89c0,7.387,6.011,13.387,13.397,13.387h77.857v5.291h-77.857
	c-10.307,0-18.689-8.382-18.689-18.679c0-10.307,8.382-18.689,18.689-18.689h77.857v5.291h-77.857
	C1079.36,778.492,1073.35,784.504,1073.35,791.89z"/><rect width="5.013" height="37.368" x="1017.626" y="773.201" fill="#FFF"/><rect width="5.013" height="37.368" x="1005.092" y="773.201" fill="#FFF"/><polygon fill="#E24897" points="1091.817 788.076 1091.817 799.706 1097.732 795.595 1103.647 799.706 1103.647 788.076"/><path fill="#FFF" d="M1033.505 793.891c0-5.997 4.862-10.859 10.859-10.859 5.997 0 10.859 4.862 10.859 10.859 0 5.997-4.862 10.859-10.859 10.859C1038.367 804.75 1033.505 799.888 1033.505 793.891zM960.091 741.125v26.785h77.857c7.387 0 13.398-6 13.398-13.387 0-7.386-6.011-13.398-13.398-13.398H960.091z"/><path fill="#F0BF58" d="M1037.948,741.125c11.688,0,19.932,15.049,6.369,26.785h-84.226v5.291h225.9v-37.368h-225.9v5.291H1037.948z
	"/><path fill="#F6D99B" d="M1051.346,754.522c0,7.387-6.011,13.387-13.398,13.387h-77.857v5.291h77.857
	c10.308,0,18.689-8.382,18.689-18.679c0-10.308-8.382-18.689-18.689-18.689h-77.857v5.291h77.857
	C1045.335,741.125,1051.346,747.136,1051.346,754.522z"/><rect width="5.013" height="37.368" x="1102.056" y="735.833" fill="#FFF" transform="rotate(-180 1104.563 754.517)"/><rect width="5.013" height="37.368" x="1114.59" y="735.833" fill="#FFF" transform="rotate(-180 1117.097 754.517)"/><polygon fill="#F0BF58" points="1032.878 750.708 1032.878 762.338 1026.963 758.228 1021.048 762.338 1021.048 750.708"/><circle cx="1079.655" cy="754.517" r="10.251" fill="#FFF"/><path fill="#D94559" d="M1138.117,330.12c0.462,0,0.462,0.717,0,0.717C1137.656,330.837,1137.655,330.12,1138.117,330.12z"/><path fill="#ADA1FF" d="M977.599,175.326c34.858-26.527,80.324-37.37,123.975-33.707c28.212,2.368,56.359,10.748,79.351,27.267
		c22.993,16.52,40.406,41.685,44.388,69.716c3.983,28.03-6.75,58.479-29.494,75.34c-24.042,17.824-56.679,18.545-86.286,14.169
		c-37.47-5.539-73.682-17.982-111.212-23.103c-15.523-2.118-31.924-2.856-46.265,3.454c-14.341,6.31-25.732,13.744-30.398,34.632
		C898.482,253.679,942.74,201.854,977.599,175.326z"/><path fill="#ADA1FF" d="M1040.438 330.705c3.604.807 6.94 2.55 10.397 3.838 3.48 1.298 7.011 2.467 10.535 3.639 7.076 2.354 14.139 4.704 21.362 6.573 14.378 3.721 29.169 5.939 44.031 6.18 26.147.424 52.413-5.441 74.92-19.025 12.198-7.361 23.388-17.149 32.066-28.468.415-.542 1.339-.057.947.553-6.968 10.853-15.623 19.877-26.01 27.522-10.506 7.734-22.256 13.68-34.577 17.931-27.875 9.617-57.698 9.465-86.271 3.011-8.453-1.909-16.891-4.259-25.028-7.257-4.022-1.482-7.961-3.198-11.856-4.985-4.008-1.839-8.435-3.41-11.967-6.073C1037.336 332.902 1038.235 330.212 1040.438 330.705zM904.101 238.628c3.469-14.472 10.041-28.046 19.13-39.822 4.564-5.914 9.777-11.322 15.509-16.114 2.678-2.238 5.46-4.367 8.35-6.324 2.904-1.967 6.349-4.219 9.719-5.229.803-.241 1.476.855.835 1.434-2.504 2.264-5.605 4.07-8.317 6.097-2.984 2.231-5.873 4.56-8.617 7.083-5.178 4.76-9.867 10.048-14.004 15.736-8.381 11.521-14.354 24.654-17.411 38.572C908.554 243.435 903.291 242.011 904.101 238.628zM1006.718 321.53c1.538-.806 3.679-.531 5.369-.373 1.694.159 3.385.426 5.035.846 1.597.407 3.149.954 4.645 1.645 1.593.735 3.391 1.534 4.397 3.018.842 1.242-.252 3.382-1.831 3.192-.613-.073-1.109-.131-1.67-.397-.345-.163-.676-.356-1.019-.523-.601-.293-.979-.462-1.516-.671-1.375-.535-2.775-1.016-4.206-1.376-.693-.174-1.393-.323-2.097-.445-.765-.132-.925-.151-1.738-.22-.712-.061-1.427-.095-2.141-.101-.865-.007-1.827.168-2.647-.151-.917-.356-1.619-.989-1.742-2.021C1005.447 323.028 1005.849 321.985 1006.718 321.53z"/><path fill="#FFF" d="M972.01 282.05c-.674-.106-1.4-.337-2.179-.691-.85-.425-1.488-1.028-1.913-1.807 0-.851.389-1.276 1.169-1.276.779 0 1.771.249 2.976.744 1.132.568 2.089.851 2.87.851 1.558 0 2.994-.637 4.306-1.913 1.31-1.276 2.32-2.94 3.03-4.997 1.417-4.04 2.126-7.617 2.126-10.737 0-3.471-.497-6.98-1.488-10.524-.993-3.543-2.304-6.874-3.933-9.993-.355-.778-.957-1.948-1.807-3.508-1.772-3.543-3.12-6.307-4.04-8.292-.922-1.984-1.738-4.181-2.445-6.591-.993-3.19-1.488-6.626-1.488-10.312 0-2.339.372-4.588 1.116-6.751.745-2.161 1.93-4.021 3.561-5.58 1.771-1.63 3.756-2.445 5.954-2.445.85 0 1.877.337 3.083 1.01 1.204.674 1.807 1.329 1.807 1.967 0 .568-.212.851-.637.851s-.993-.176-1.701-.532c-.638-.353-1.241-.531-1.808-.531-1.631 0-3.066.603-4.305 1.807-1.241 1.206-2.145 2.695-2.711 4.465-.497 1.488-.744 3.119-.744 4.889 0 2.764.353 5.618 1.062 8.558.708 2.942 1.664 5.688 2.871 8.239l3.72 7.76 1.063 2.232c1.488 3.048 2.639 5.565 3.455 7.548.814 1.985 1.505 4.217 2.073 6.697.779 3.332 1.169 6.521 1.169 9.567 0 4.111-1.063 8.292-3.189 12.545-1.063 2.056-2.482 3.72-4.252 4.996-1.772 1.276-3.721 1.914-5.847 1.914C973.658 282.209 972.683 282.156 972.01 282.05zM1005.443 278.807c-.356 0-.638.037-.851.106h-.85c-1.56 0-2.551-.353-2.977-1.063 0-.494.282-.92.851-1.275l.531-.532h3.083l.425-.425.213-.957.106-1.276c0-4.322-.106-8.186-.319-11.588l-.212-3.933-.213-7.761c0-2.764.106-6.91.319-12.438l.213-12.331c0-5.385-.178-9.496-.531-12.331-.638-.212-1.701-.319-3.19-.319l-1.169.106c-.425.071-.887.106-1.382.106-1.347 0-2.02-.601-2.02-1.808 0-.282.319-.566.957-.85.638-.282 1.17-.426 1.594-.426 2.692 0 5.385.143 8.079.426 1.629.072 3.259.39 4.89.957 1.276.425 1.913 1.028 1.913 1.807 0 .143-.106.425-.319.851l-2.445.212c-.497-.426-1.525-.638-3.083-.638l-.532.319c.212.638.319 2.517.319 5.635 0 4.677-.036 8.895-.106 12.65l-.212 12.651c0 3.189.142 7.052.426 11.587.212 5.174.319 9.073.319 11.694v1.382c-.072.497-.106 1.135-.106 1.914 0 1.631.106 2.622.319 2.976l-.106.212c0 .709.779 1.063 2.339 1.063.637 0 1.169-.035 1.594-.106h1.594c2.055 0 3.083.497 3.083 1.488 0 .637-.213 1.153-.638 1.541-.426.39-.993.585-1.701.585-.638 0-1.206-.069-1.701-.212-.568-.069-1.17-.106-1.807-.106-.425 0-1.063.178-1.914.532-.85.425-1.488.637-1.913.637C1006.682 279.871 1005.726 279.516 1005.443 278.807zM1033.083 279.446c-1.56-.779-2.711-2.286-3.455-4.518-.745-2.233-1.401-5.794-1.967-10.684-.851-7.157-1.276-12.72-1.276-16.69 0-2.409.141-5.173.425-8.292l.637-6.697c.354-5.315.761-9.337 1.223-12.066.46-2.728 1.488-5.137 3.083-7.229 1.594-2.09 4.056-3.312 7.388-3.668.354-.069.921-.106 1.702-.106 2.196 0 3.295.497 3.295 1.488 0 .426-.231.797-.691 1.117-.462.319-.94.479-1.435.479l-1.062-.107-.957-.106c-1.206 0-2.286.39-3.242 1.17-.957.781-1.754 1.914-2.392 3.402-1.488 3.545-2.445 7.016-2.87 10.418-.568 4.465-.922 8.363-1.063 11.693l-.106 8.186c0 3.473.106 6.059.319 7.76.495.781.832 1.967 1.01 3.562.176 1.594.335 3.774.479 6.538.141 2.481.46 4.59.957 6.325.495 1.738 1.382 3.172 2.658 4.306 1.417 1.206 3.365 1.807 5.847 1.807 2.055 0 3.508-1.132 4.358-3.401.992-2.409 1.558-4.89 1.702-7.442.213-3.189.319-5.882.319-8.079v-5.847c-.709-.708-1.95-1.063-3.721-1.063h-.851c-.355.072-.744.106-1.169.106-1.701 0-2.551-.425-2.551-1.276 0-1.204.85-1.807 2.551-1.807 1.204 0 2.196.036 2.976.106l2.339.106c1.345.212 2.408.462 3.189.744.851.284 1.276.674 1.276 1.169 0 .922-.213 2.233-.638 3.933-.355 1.985-.531 3.332-.531 4.04 0 2.976.07 5.671.212 8.079.07 2.482.106 5.209.106 8.185-3.614 3.686-7.229 5.529-10.843 5.529C1037.051 280.615 1034.641 280.225 1033.083 279.446zM1089.691 279.658c-.249-.425-.479-1.063-.691-1.914-.072-.566-.213-1.062-.426-1.488l.106-.319c-.567-3.331-1.772-7.405-3.614-12.225l-1.914-5.528c-.142-.142-.815-1.949-2.019-5.422l-.851-2.551c-6.379-19.702-10.383-30.368-12.013-31.998-.568 1.913-.851 4.395-.851 7.441 0 1.631.035 3.048.107 4.253l.106 4.146-.106 2.551c-.072.781-.107 1.631-.107 2.551 0 1.56.07 2.907.213 4.04l.213 3.401h-.319c0 11.836.247 18.356.744 19.561v9.567c.283.568.425 1.312.425 2.233 0 .567-.196 1.062-.585 1.488-.39.425-.868.637-1.435.637-1.488 0-2.233-1.913-2.233-5.74l.212-3.402c.142-1.062.213-2.232.213-3.508 0-3.402-.107-8.505-.319-15.309-.212-6.804-.319-11.906-.319-15.308 0-2.055.106-5.209.319-9.461.213-4.181.319-7.299.319-9.355v-1.382c0-3.472.637-5.741 1.913-6.804l.319.32 1.063-.212c.283.071.601.283.957.637.283.284.425.603.425.957l.213.637c0 .143.035.319.106.532 1.133 5.033 3.685 12.083 7.654 21.154 4.04 9.568 6.555 15.911 7.548 19.029.708 2.481 1.276 4.677 1.701 6.591 1.346 6.024 2.94 10.667 4.784 13.926l.213-.319c1.629-15.733 2.445-35.045 2.445-57.937l-.107-1.275c-.071-.354-.106-.815-.106-1.383 0-1.488.495-2.232 1.488-2.232.638 0 1.186.319 1.648.957.46.637.691 1.347.691 2.126v7.122l-.531.851c0 6.734-.39 17.79-1.169 33.168-.781 15.379-1.525 23.743-2.233 25.088l-1.807.425v.106l-.106-.106-1.063.319C1090.344 280.296 1089.938 280.083 1089.691 279.658zM1140.661 280.828c-1.418-.71-2.588-1.63-3.508-2.764-.922-1.063-1.737-2.374-2.444-3.933-.71-1.558-1.276-3.118-1.702-4.678-.709-2.408-1.24-5.422-1.594-9.036l-.213-3.295c0-.707-.018-1.169-.053-1.382-.036-.212-.053-.354-.053-.425-.356-3.472-.797-11.126-1.329-22.963-.531-11.835-.797-21.048-.797-27.639v-.745-.851c0-1.842.532-2.764 1.594-2.764 1.489 0 2.233.851 2.233 2.551v.744l-.106.851c0 8.222.248 17.949.744 29.181.495 11.234.992 19.331 1.488 24.291.353 3.119.956 6.309 1.807 9.567.567 2.197 1.186 4.04 1.86 5.528.673 1.488 1.542 2.729 2.604 3.721 1.276 1.134 2.515 1.701 3.721 1.701 1.204 0 2.285-.283 3.242-.851.957-.566 1.683-1.31 2.179-2.232.495-.779.903-1.789 1.223-3.03.319-1.24.513-2.427.585-3.561.069-.707.106-1.877.106-3.508v-12.119c0-5.385-.143-12.013-.426-19.879l-.425-13.607-.213-9.036c-.212-3.968-.319-6.98-.319-9.036 0-.779.212-1.382.637-1.807.426-.425.92-.637 1.488-.637.567 0 1.045.212 1.436.637.389.425.585 1.028.585 1.807v8.079c0 3.545.035 6.734.106 9.568v9.567c0 6.875.07 12.9.213 18.072.07 5.246.106 11.127.106 17.647 0 1.772-.072 3.331-.212 4.677-.143 1.347-.425 2.764-.851 4.252-.425 1.701-1.01 3.136-1.754 4.306-.744 1.169-1.719 2.143-2.924 2.924-1.347.779-2.836 1.169-4.465 1.169C1143.602 281.891 1142.078 281.535 1140.661 280.828zM1171.915 281.146c-.781-4.465-1.169-9.567-1.169-15.309 0-2.267.106-5.562.319-9.886l.213-9.886c-.497-.992-.744-1.808-.744-2.445.707-1.133 1.063-4.394 1.063-9.781 0-12.897-.178-19.772-.532-20.623.638-1.771 1.133-2.658 1.488-2.658h4.678c.779 0 1.895.372 3.349 1.116 1.452.744 2.674 1.542 3.667 2.392 1.771 1.631 2.658 5.812 2.658 12.544 0 3.615-.106 6.379-.319 8.292-.143 1.347-.372 2.411-.691 3.19-.319.781-.797 1.666-1.436 2.658-1.063 1.631-2.87 3.048-5.422 4.252-1.063.568-2.551 1.134-4.465 1.701v12.651c0 1.772.176 5.245.531 10.417l.212 3.402.213 6.91c0 1.276-.674 1.914-2.02 1.914L1171.915 281.146zM1180.526 240.218c.495-.707.957-1.664 1.382-2.87.426-1.204.708-2.374.851-3.508.425-2.054.638-4.428.638-7.122v-2.87c0-.992-.036-1.949-.106-2.87-.071-.92-.213-1.807-.425-2.658-.284-.92-.656-1.682-1.116-2.285-.462-.601-1.081-1.117-1.86-1.542-.851-.425-1.879-.637-3.083-.637-.851 0-1.453.212-1.808.637-.356.425-.531 1.17-.531 2.233 0 1.701.106 4.252.319 7.653l.213 7.654c0 1.844-.072 3.508-.213 4.997l-.213 4.997.744 1.062C1177.371 243.088 1179.108 242.132 1180.526 240.218z"/><path fill="#FF8FCF" d="M326.518,393.707H189.26c-5.942,0-10.759-4.817-10.759-10.759v-62.331c0-5.942,4.817-10.759,10.759-10.759
	h137.259c5.942,0,10.759,4.817,10.759,10.759v62.331C337.277,388.89,332.46,393.707,326.518,393.707z"/><path fill="#FFF" d="M277.114 330.396h-20.607c-.446 0-.808-.687-.808-1.534l0 0c0-.847.362-1.534.808-1.534h20.607c.446 0 .808.687.808 1.534l0 0C277.922 329.71 277.56 330.396 277.114 330.396zM313.513 330.396h-31.928c-.446 0-.808-.687-.808-1.534l0 0c0-.847.362-1.534.808-1.534h31.928c.446 0 .808.687.808 1.534l0 0C314.321 329.71 313.96 330.396 313.513 330.396zM325.462 330.396h-6.7c-.388 0-.703-.598-.703-1.335l0 0c0-.737.315-1.335.703-1.335h6.7c.388 0 .703.598.703 1.335l0 0C326.165 329.799 325.85 330.396 325.462 330.396zM325.357 346.244h-68.851c-.446 0-.808-.687-.808-1.534l0 0c0-.847.362-1.534.808-1.534h68.851c.446 0 .808.687.808 1.534l0 0C326.165 345.557 325.804 346.244 325.357 346.244zM277.114 376.236h-20.607c-.446 0-.808-.687-.808-1.534v0c0-.847.362-1.534.808-1.534h20.607c.446 0 .808.687.808 1.534l0 0C277.922 375.549 277.56 376.236 277.114 376.236zM313.513 376.236h-31.928c-.446 0-.808-.687-.808-1.534l0 0c0-.847.362-1.534.808-1.534h31.928c.446 0 .808.687.808 1.534l0 0C314.321 375.549 313.96 376.236 313.513 376.236zM290.768 360.388h-34.261c-.446 0-.808-.687-.808-1.534l0 0c0-.847.362-1.534.808-1.534h34.261c.446 0 .807.687.807 1.534l0 0C291.575 359.701 291.214 360.388 290.768 360.388zM325.357 360.388h-26.38c-.446 0-.808-.687-.808-1.534l0 0c0-.847.362-1.534.808-1.534h26.38c.446 0 .808.687.808 1.534l0 0C326.165 359.701 325.804 360.388 325.357 360.388zM325.462 376.236h-6.7c-.388 0-.703-.598-.703-1.335l0 0c0-.737.315-1.335.703-1.335h6.7c.388 0 .703.598.703 1.335l0 0C326.165 375.638 325.85 376.236 325.462 376.236z"/><circle cx="217.927" cy="350.538" r="29.989" fill="#FFF" transform="rotate(-61.413 217.922 350.53)"/><circle cx="217.481" cy="342.056" r="11.642" fill="#FF8FCF"/><path fill="#FF8FCF" d="M228.159,353.792c-0.937-0.732-2.247-0.706-3.168,0.045c-2.004,1.635-4.566,2.62-7.359,2.62
	c-2.703,0-5.19-0.92-7.162-2.468c-0.939-0.737-2.27-0.722-3.176,0.055c-2.349,2.014-3.779,4.918-3.779,8.693v0.34
	c0,1.952,1.583,3.535,3.535,3.535h21.756c1.952,0,3.535-1.583,3.535-3.535v-0.34C232.34,358.801,230.743,355.81,228.159,353.792z"/><path fill="#ADA1FF" d="M533.865,162.262H373.983c-4.571,0-8.277,3.706-8.277,8.277v70.163c0,4.571,3.706,8.277,8.277,8.277h159.881
	c4.571,0,8.277-3.706,8.277-8.277v-70.163C542.141,165.968,538.436,162.262,533.865,162.262z"/><path fill="#FFF" d="M496.614 199.944H387.526c-3.051 0-5.524-2.473-5.524-5.524v-1.497c0-3.051 2.473-5.524 5.524-5.524h109.087c3.051 0 5.524 2.473 5.524 5.524v1.497C502.137 197.471 499.664 199.944 496.614 199.944zM496.614 228.817H387.856c-3.051 0-5.524-2.473-5.524-5.524v-1.497c0-3.051 2.473-5.524 5.524-5.524h108.758c3.051 0 5.524 2.473 5.524 5.524v1.497C502.137 226.344 499.664 228.817 496.614 228.817zM526.482 199.944h-12.449c-3.051 0-5.524-2.473-5.524-5.524v-1.497c0-3.051 2.473-5.524 5.524-5.524h12.449c3.051 0 5.524 2.473 5.524 5.524v1.497C532.006 197.471 529.533 199.944 526.482 199.944zM526.482 228.817h-12.449c-3.051 0-5.524-2.473-5.524-5.524v-1.497c0-3.051 2.473-5.524 5.524-5.524h12.449c3.051 0 5.524 2.473 5.524 5.524v1.497C532.006 226.344 529.533 228.817 526.482 228.817z"/><path fill="#ADA1FF" d="M393.569 218.624l.365 2.565c.018.129.15.207.272.163l2.432-.894c.218-.08.379.208.196.352l-2.039 1.599c-.102.08-.104.234-.005.317l1.99 1.659c.178.149.009.432-.207.346l-2.404-.966c-.12-.048-.255.027-.277.154l-.441 2.553c-.04.229-.37.224-.403-.006l-.365-2.565c-.018-.128-.15-.207-.272-.163l-2.432.894c-.218.08-.379-.208-.196-.352l2.039-1.599c.102-.08.104-.234.005-.317l-1.99-1.659c-.178-.149-.009-.432.207-.346l2.404.966c.12.048.255-.027.277-.154l.441-2.553C393.206 218.389 393.536 218.394 393.569 218.624zM405.025 218.624l.365 2.565c.018.129.15.207.272.163l2.432-.894c.218-.08.379.208.196.352l-2.039 1.599c-.102.08-.104.234-.005.317l1.99 1.659c.178.149.009.432-.207.346l-2.404-.966c-.12-.048-.255.027-.277.154l-.441 2.553c-.04.229-.37.224-.403-.006l-.365-2.565c-.018-.128-.15-.207-.272-.163l-2.432.894c-.218.08-.379-.208-.196-.352l2.039-1.599c.102-.08.104-.234.005-.317l-1.99-1.659c-.178-.149-.009-.432.207-.346l2.404.966c.12.048.255-.027.277-.154l.441-2.553C404.662 218.389 404.992 218.394 405.025 218.624zM416.482 218.624l.365 2.565c.018.129.15.207.272.163l2.432-.894c.218-.08.379.208.196.352l-2.039 1.599c-.102.08-.104.234-.005.317l1.99 1.659c.178.149.009.432-.207.346l-2.404-.966c-.12-.048-.255.027-.277.154l-.441 2.553c-.04.229-.37.224-.403-.006l-.365-2.565c-.018-.128-.15-.207-.272-.163l-2.432.894c-.218.08-.379-.208-.196-.352l2.039-1.599c.102-.08.104-.234.005-.317l-1.99-1.659c-.179-.149-.009-.432.207-.346l2.404.966c.12.048.255-.027.277-.154l.441-2.553C416.118 218.389 416.449 218.394 416.482 218.624zM427.938 218.624l.365 2.565c.018.129.15.207.272.163l2.432-.894c.218-.08.379.208.196.352l-2.039 1.599c-.102.08-.104.234-.005.317l1.99 1.659c.178.149.009.432-.206.346l-2.404-.966c-.12-.048-.255.027-.277.154l-.441 2.553c-.04.229-.37.224-.403-.006l-.365-2.565c-.018-.128-.15-.207-.272-.163l-2.432.894c-.218.08-.379-.208-.196-.352l2.039-1.599c.102-.08.104-.234.005-.317l-1.99-1.659c-.179-.149-.009-.432.206-.346l2.404.966c.12.048.255-.027.277-.154l.441-2.553C427.575 218.389 427.905 218.394 427.938 218.624zM439.394 218.624l.365 2.565c.018.129.15.207.272.163l2.432-.894c.218-.08.379.208.196.352l-2.039 1.599c-.102.08-.104.234-.005.317l1.99 1.659c.179.149.009.432-.206.346l-2.404-.966c-.12-.048-.255.027-.277.154l-.441 2.553c-.04.229-.37.224-.403-.006l-.365-2.565c-.018-.128-.15-.207-.272-.163l-2.432.894c-.218.08-.379-.208-.196-.352l2.039-1.599c.102-.08.104-.234.005-.317l-1.99-1.659c-.178-.149-.009-.432.207-.346l2.404.966c.12.048.255-.027.277-.154l.441-2.553C439.031 218.389 439.362 218.394 439.394 218.624z"/><circle cx="392.405" cy="193.672" r="1.471" fill="#ADA1FF"/><path fill="#ADA1FF" d="M395.684 193.672c0-.812.659-1.471 1.471-1.471.812 0 1.471.659 1.471 1.471s-.659 1.471-1.471 1.471C396.343 195.143 395.684 194.484 395.684 193.672zM400.435 193.672c0-.812.659-1.471 1.471-1.471.812 0 1.471.659 1.471 1.471s-.659 1.471-1.471 1.471C401.093 195.143 400.435 194.484 400.435 193.672z"/><circle cx="406.656" cy="193.672" r="1.471" fill="#ADA1FF"/><circle cx="411.406" cy="193.672" r="1.471" fill="#ADA1FF"/><circle cx="416.156" cy="193.672" r="1.471" fill="#ADA1FF"/><circle cx="420.906" cy="193.672" r="1.471" fill="#ADA1FF"/><path fill="#ADA1FF" d="M424.185,193.672c0-0.812,0.659-1.471,1.471-1.471c0.812,0,1.471,0.659,1.471,1.471
	s-0.659,1.471-1.471,1.471C424.844,195.143,424.185,194.484,424.185,193.672z"/><path fill="#FF91DA" d="M1154.144 432.129c.778.632 1.274 1.547 1.372 2.582.13 1.368-.461 2.66-1.581 3.456l-10.809 7.685c-1.12.796-2.534.93-3.784.359-1.248-.572-2.072-1.73-2.202-3.097l-1.251-13.204c-.13-1.368.462-2.66 1.581-3.456 1.12-.796 2.534-.93 3.783-.358l12.06 5.518C1153.617 431.754 1153.895 431.926 1154.144 432.129zM1140.409 443.375c.069.056.135.091.179.112.127.058.459.167.801-.076l10.809-7.685c.341-.243.348-.593.334-.731-.013-.138-.084-.479-.466-.655l-12.061-5.519c-.381-.175-.687-.005-.8.076-.114.081-.374.314-.335.731l1.251 13.204C1140.149 443.102 1140.283 443.272 1140.409 443.375zM274.71 219.036c.778.631 1.274 1.547 1.372 2.582.13 1.368-.461 2.66-1.581 3.456l-10.809 7.685c-1.12.796-2.534.93-3.784.359-1.248-.572-2.072-1.73-2.202-3.097l-1.251-13.204c-.13-1.368.462-2.66 1.581-3.456 1.12-.796 2.534-.93 3.783-.358l12.06 5.518C274.183 218.661 274.461 218.834 274.71 219.036zM260.976 230.282c.069.056.135.091.179.112.127.058.459.167.8-.076l10.809-7.685c.341-.243.348-.593.335-.731-.013-.138-.084-.479-.466-.655l-12.061-5.519c-.381-.175-.687-.005-.8.076-.114.081-.374.314-.335.731l1.251 13.204C260.715 230.009 260.849 230.18 260.976 230.282z"/><path fill="#FFB86B" d="M940.918 400.799l2.888-5.961c.656-1.353.09-2.981-1.263-3.637-1.353-.656-2.982-.09-3.637 1.263l-2.888 5.961-5.961-2.888c-1.352-.656-2.982-.09-3.637 1.263-.656 1.353-.09 2.981 1.263 3.637l5.961 2.888-2.882 5.95c-.656 1.353-.09 2.982 1.263 3.637.676.328 1.422.351 2.08.122.658-.229 1.229-.708 1.557-1.385l2.882-5.95 5.95 2.883c.676.328 1.422.35 2.08.122.658-.229 1.229-.708 1.557-1.385.656-1.353.091-2.981-1.263-3.637L940.918 400.799zM221.123 495.089l2.888-5.961c.656-1.353.09-2.981-1.263-3.637-1.353-.656-2.982-.09-3.637 1.263l-2.888 5.961-5.961-2.888c-1.352-.656-2.982-.09-3.637 1.263-.656 1.353-.09 2.981 1.263 3.637l5.961 2.888-2.882 5.95c-.656 1.353-.09 2.982 1.263 3.637.676.328 1.422.351 2.08.122.658-.229 1.229-.708 1.557-1.385l2.883-5.95 5.95 2.883c.676.328 1.422.35 2.08.122.658-.229 1.229-.708 1.557-1.385.656-1.353.09-2.981-1.263-3.637L221.123 495.089z"/><path fill="#736FC7" d="M1095.327 612.179c-5.572 1.935-11.679-1.024-13.615-6.595-1.935-5.572 1.024-11.68 6.595-13.615 5.572-1.935 11.679 1.023 13.615 6.596C1103.857 604.136 1100.898 610.244 1095.327 612.179zM1089.406 595.131c-3.828 1.33-5.861 5.526-4.532 9.355 1.33 3.828 5.526 5.861 9.354 4.531 3.828-1.33 5.861-5.526 4.531-9.354C1097.43 595.834 1093.234 593.801 1089.406 595.131zM463.675 380.105c-5.572 1.935-11.68-1.024-13.615-6.595-1.935-5.572 1.024-11.679 6.595-13.615 5.572-1.935 11.68 1.024 13.615 6.596C472.206 372.062 469.247 378.169 463.675 380.105zM457.754 363.057c-3.828 1.33-5.861 5.526-4.532 9.354 1.33 3.828 5.526 5.861 9.354 4.532 3.828-1.33 5.861-5.526 4.532-9.354C465.779 363.76 461.582 361.727 457.754 363.057zM837.53 172.367c-5.572 1.935-11.68-1.024-13.615-6.595-1.935-5.572 1.024-11.68 6.595-13.615 5.572-1.935 11.68 1.024 13.615 6.596C846.06 164.324 843.102 170.432 837.53 172.367zM831.609 155.319c-3.828 1.33-5.861 5.526-4.532 9.355 1.33 3.828 5.526 5.861 9.354 4.531 3.828-1.33 5.861-5.526 4.531-9.354C839.633 156.023 835.437 153.99 831.609 155.319z"/></svg>